# Blender v2.90.1 OBJ File: ''
# www.blender.org
mtllib ESP32.mtl
o Cube
v 74.854675 24.281349 -37.309189
v 74.854675 -8.900523 -35.112312
v 74.854675 24.281349 27.690811
v 74.854675 -8.900523 25.493935
v -73.357697 24.281349 -35.112312
v -70.750046 -8.316722 -34.139309
v -73.357697 24.281349 25.493935
v -70.750046 -8.316722 24.520931
v 74.854675 24.281349 -29.809189
v 74.854675 -5.718650 -29.809189
v 74.854675 24.281349 20.190811
v 74.854675 -5.718650 20.190811
v -59.145325 24.281349 -29.809189
v -59.145325 -5.718650 -29.809189
v -59.145325 24.281349 20.190811
v -59.145325 -5.718650 20.190811
vt 0.375000 0.750000
vt 0.625000 0.750000
vt 0.625000 1.000000
vt 0.375000 1.000000
vt 0.375000 0.000000
vt 0.625000 0.000000
vt 0.625000 0.250000
vt 0.375000 0.250000
vt 0.125000 0.500000
vt 0.375000 0.500000
vt 0.125000 0.750000
vt 0.625000 0.500000
vt 0.375000 0.750000
vt 0.375000 1.000000
vt 0.625000 1.000000
vt 0.625000 0.750000
vt 0.375000 0.000000
vt 0.375000 0.250000
vt 0.625000 0.250000
vt 0.625000 0.000000
vt 0.125000 0.500000
vt 0.125000 0.750000
vt 0.375000 0.500000
vt 0.625000 0.500000
vn -0.0109 -0.0486 0.9988
vn -0.9968 -0.0797 0.0000
vn -0.0040 -1.0000 0.0000
vn -0.0109 -0.0486 -0.9988
vn 0.0000 0.0000 -1.0000
vn 1.0000 0.0000 0.0000
vn 0.0000 1.0000 0.0000
vn 0.0000 0.0000 1.0000
usemtl Material
s off
f 4/1/1 3/2/1 7/3/1 8/4/1
f 8/5/2 7/6/2 5/7/2 6/8/2
f 6/9/3 2/10/3 4/1/3 8/11/3
f 6/8/4 5/7/4 1/12/4 2/10/4
f 12/13/5 16/14/5 15/15/5 11/16/5
f 16/17/6 14/18/6 13/19/6 15/20/6
f 14/21/7 16/22/7 12/13/7 10/23/7
f 14/18/8 10/23/8 9/24/8 13/19/8
f 2/10/6 1/12/6 9/24/6 10/23/6
f 3/2/6 4/1/6 12/13/6 11/16/6
f 7/3/7 3/2/7 11/16/7 15/15/7
f 5/7/7 7/6/7 15/20/7 13/19/7
f 1/12/7 5/7/7 13/19/7 9/24/7
f 4/1/6 2/10/6 10/23/6 12/13/6
